<svg width="14" height="16" viewBox="0 0 14 16" fill="none" xmlns="http://www.w3.org/2000/svg">
<path d="M13 5L8.50001 1.055C8.08749 0.686038 7.55346 0.482056 7.00001 0.482056C6.44656 0.482056 5.91253 0.686038 5.50001 1.055L1.00001 5C0.761786 5.21306 0.571685 5.47442 0.442364 5.76669C0.313043 6.05895 0.24747 6.37542 0.25001 6.695V13.25C0.25001 13.8467 0.487063 14.419 0.90902 14.841C1.33098 15.263 1.90327 15.5 2.50001 15.5H11.5C12.0967 15.5 12.669 15.263 13.091 14.841C13.513 14.419 13.75 13.8467 13.75 13.25V6.6875C13.7515 6.36918 13.6854 6.05416 13.5561 5.76327C13.4268 5.47237 13.2373 5.21222 13 5ZM8.50001 14H5.50001V10.25C5.50001 10.0511 5.57903 9.86033 5.71968 9.71968C5.86033 9.57902 6.0511 9.5 6.25001 9.5H7.75001C7.94892 9.5 8.13969 9.57902 8.28034 9.71968C8.42099 9.86033 8.50001 10.0511 8.50001 10.25V14ZM12.25 13.25C12.25 13.4489 12.171 13.6397 12.0303 13.7803C11.8897 13.921 11.6989 14 11.5 14H10V10.25C10 9.65327 9.76296 9.08097 9.341 8.65901C8.91904 8.23706 8.34675 8 7.75001 8H6.25001C5.65327 8 5.08098 8.23706 4.65902 8.65901C4.23706 9.08097 4.00001 9.65327 4.00001 10.25V14H2.50001C2.3011 14 2.11033 13.921 1.96968 13.7803C1.82903 13.6397 1.75001 13.4489 1.75001 13.25V6.6875C1.75014 6.58102 1.77296 6.47578 1.81692 6.37879C1.86089 6.2818 1.92501 6.19529 2.00501 6.125L6.50501 2.1875C6.64188 2.06727 6.81783 2.00095 7.00001 2.00095C7.18219 2.00095 7.35814 2.06727 7.49501 2.1875L11.995 6.125C12.075 6.19529 12.1391 6.2818 12.1831 6.37879C12.2271 6.47578 12.2499 6.58102 12.25 6.6875V13.25Z" fill="#4A8394"/>
</svg>
