<svg width="19" height="24" viewBox="0 0 19 24" fill="none" xmlns="http://www.w3.org/2000/svg">
<path fill-rule="evenodd" clip-rule="evenodd" d="M10.8648 9.87961L11.8567 0L2.31537 13.7274H7.63525L6.64337 23.6071L16.1847 9.87961H10.8648ZM9.29338 12.2274H5.18469L9.78622 5.60705L9.20668 11.3796H13.3154L8.71384 18L9.29338 12.2274Z" fill="#868E96"/>
<path d="M1.5 12.3034C1.5 8.33219 4.48755 5.05767 8.3373 4.6065L8.1627 3.1167C3.56611 3.65539 0 7.5624 0 12.3034C0 16.1399 2.33548 19.4292 5.6593 20.8304L6.24199 19.4482C3.45444 18.2731 1.5 15.5156 1.5 12.3034Z" fill="#868E96"/>
<path d="M11.5297 4.89392C14.6981 5.86748 17 8.8176 17 12.3034C17 16.4303 13.7739 19.8043 9.70657 20.0402L9.79343 21.5377C14.6495 21.256 18.5 17.2296 18.5 12.3034C18.5 8.14046 15.7506 4.62166 11.9703 3.46008L11.5297 4.89392Z" fill="#868E96"/>
</svg>
