<svg width="18" height="20" viewBox="0 0 18 20" fill="none" xmlns="http://www.w3.org/2000/svg">
<path d="M16.991 0.00195312C16.7257 0.00195313 16.4714 0.10731 16.2839 0.294846C16.0963 0.482383 15.991 0.736737 15.991 1.00195V1.63895C15.1476 2.68461 14.0816 3.52906 12.8707 4.11081C11.6598 4.69257 10.3344 4.997 8.99097 5.00195H2.99097C2.19556 5.00275 1.43296 5.31907 0.870524 5.88151C0.308087 6.44395 -0.00823899 7.20655 -0.0090332 8.00195V10.002C-0.00823899 10.7974 0.308087 11.56 0.870524 12.1224C1.43296 12.6848 2.19556 13.0012 2.99097 13.002H3.47497L1.07197 18.608C1.00673 18.7601 0.980305 18.9261 0.995052 19.091C1.0098 19.2559 1.06526 19.4146 1.15646 19.5528C1.24765 19.691 1.37173 19.8043 1.51756 19.8827C1.66339 19.9611 1.8264 20.0021 1.99197 20.002H5.99197C6.1875 20.0019 6.3787 19.9444 6.54188 19.8367C6.70506 19.729 6.83305 19.5757 6.90997 19.396L9.63397 13.04C10.8646 13.1303 12.0635 13.472 13.1569 14.0439C14.2503 14.6158 15.2148 15.4057 15.991 16.365V17.002C15.991 17.2672 16.0963 17.5215 16.2839 17.7091C16.4714 17.8966 16.7257 18.002 16.991 18.002C17.2562 18.002 17.5105 17.8966 17.6981 17.7091C17.8856 17.5215 17.991 17.2672 17.991 17.002V1.00195C17.991 0.736737 17.8856 0.482383 17.6981 0.294846C17.5105 0.10731 17.2562 0.00195313 16.991 0.00195312ZM2.99097 11.002C2.72575 11.002 2.4714 10.8966 2.28386 10.7091C2.09632 10.5215 1.99097 10.2672 1.99097 10.002V8.00195C1.99097 7.73674 2.09632 7.48238 2.28386 7.29485C2.4714 7.10731 2.72575 7.00195 2.99097 7.00195H3.99097V11.002H2.99097ZM5.33197 18.002H3.50797L5.64997 13.002H7.47497L5.33197 18.002ZM15.992 13.524C14.0202 11.8995 11.5467 11.0083 8.99197 11.002H5.99197V7.00195H8.99197C11.5466 6.9955 14.0202 6.10431 15.992 4.47995V13.524Z" fill="white"/>
</svg>
